Coordinates
version=1
nRows=13
nColumns=33
inDegrees=yes

Units are S.I. units (second, meters, Newtons, ...)
Angles are in degrees.

endheader
time	ground_thorax_rot_x	ground_thorax_rot_y	ground_thorax_rot_z	ground_thorax_tx	ground_thorax_ty	ground_thorax_tz	clav_prot_r	clav_elev_r	scapula_abduction_r	scapula_elevation_r	scapula_upward_rot_r	scapula_winging_r	shoulder_elv_r	plane_of_elev_r	axial_rot_r	elbow_flexion_r	pro_sup_r	wrist_flex_r	wrist_dev_r	clav_prot_l	clav_elev_l	scapula_abduction_l	scapula_elevation_l	scapula_upward_rot_l	scapula_winging_l	shoulder_elv_l	plane_of_elev_l	axial_rot_l	elbow_flexion_l	pro_sup_l	wrist_flex_l	wrist_dev_l	
13.2700	-38.410666	-5.042100	9.193186	-55.230266	826.686889	-37.677087	9.498427	-45.000000	42.615422	-45.000000	24.098782	-2277.213192	-2618.634287	144.291171	-180.000000	1427.557630	-301.716310	21.958601	17.550951	3.819009	28.698258	-30.335234	-45.000000	-45.000000	-3164.244986	-261.838642	19.793957	-180.000000	1796.929435	528.615657	10.553396	-16.504941	
13.2800	-38.439953	-5.007064	9.010490	-56.213086	828.031617	-37.768074	9.428536	-45.000000	42.517550	-45.000000	24.163757	-2277.159156	-2618.580456	144.287602	-180.000000	1427.559996	-302.030029	22.083061	17.620013	3.792674	28.723495	-30.353284	-45.000000	-45.000000	-3164.182390	-261.807849	19.811543	-180.000000	1796.879967	527.781991	10.511684	-16.481758	
13.2900	-38.473015	-4.957714	8.810083	-57.166169	829.374618	-37.884318	9.364568	-45.000000	42.403041	-45.000000	24.213535	-2277.091542	-2618.542518	144.283872	-180.000000	1427.566155	-302.324046	22.240428	17.691329	3.766749	28.752496	-30.356491	-45.000000	-45.000000	-3164.115408	-261.753408	19.860266	-180.000000	1796.833966	526.943935	10.458747	-16.454413	
13.3000	-38.509824	-4.889655	8.589117	-58.090469	830.714099	-38.025780	9.300264	-45.000000	42.283289	-45.000000	24.262527	-2277.015430	-2618.516481	144.281471	-180.000000	1427.578910	-302.599183	22.422173	17.760803	3.737510	28.784457	-30.358906	-45.000000	-45.000000	-3164.045072	-261.685673	19.928868	-180.000000	1796.790227	526.111843	10.389369	-16.426977	
13.3100	-38.551120	-4.823713	8.364367	-58.986844	832.047484	-38.191324	9.236309	-45.000000	42.155016	-45.000000	24.318449	-2276.934432	-2618.496895	144.275655	-180.000000	1427.589183	-302.855405	22.619592	17.829654	3.716244	28.816929	-30.347879	-45.000000	-45.000000	-3163.971130	-261.604522	20.009465	-180.000000	1796.743289	525.291250	10.312484	-16.397214	
13.3200	-38.592763	-4.767193	8.147290	-59.855753	833.371274	-38.378597	9.173751	-45.000000	42.033720	-45.000000	24.375359	-2276.855457	-2618.475185	144.271256	-180.000000	1427.603073	-303.095559	22.820963	17.893257	3.692369	28.848322	-30.342423	-45.000000	-45.000000	-3163.897256	-261.532819	20.080125	-180.000000	1796.693531	524.481410	10.223636	-16.368907	
13.3300	-38.634432	-4.743405	7.959976	-60.697537	834.681811	-38.584209	9.115013	-45.000000	41.915153	-45.000000	24.429644	-2276.779433	-2618.443889	144.264911	-180.000000	1427.612827	-303.319650	23.017398	17.951810	3.674619	28.876795	-30.323453	-45.000000	-45.000000	-3163.823932	-261.463565	20.136881	-180.000000	1796.636251	523.683665	10.135998	-16.338558	
13.3400	-38.675079	-4.739115	7.791164	-61.511972	835.974705	-38.803881	9.063380	-45.000000	41.806475	-45.000000	24.469220	-2276.705220	-2618.408497	144.263427	-180.000000	1427.628369	-303.528984	23.215241	18.006683	3.647197	28.902906	-30.311442	-45.000000	-45.000000	-3163.750985	-261.410478	20.175180	-180.000000	1796.572562	522.902733	10.036669	-16.314978	
13.3500	-38.714695	-4.768909	7.655243	-62.298737	837.245611	-39.032906	9.014440	-45.000000	41.701162	-45.000000	24.501502	-2276.633124	-2618.360712	144.263111	-180.000000	1427.641217	-303.719703	23.405032	18.054898	3.626511	28.925852	-30.283370	-45.000000	-45.000000	-3163.683453	-261.355609	20.201223	-180.000000	1796.504520	522.150703	9.939902	-16.291427	
13.3600	-38.753920	-4.803930	7.521603	-63.057168	838.489780	-39.266450	8.973916	-45.000000	41.599539	-45.000000	24.514658	-2276.558878	-2618.317971	144.267854	-180.000000	1427.663434	-303.890529	23.608969	18.102720	3.590718	28.948237	-30.259896	-45.000000	-45.000000	-3163.616965	-261.306912	20.226712	-180.000000	1796.434594	521.442300	9.824569	-16.280903	
13.3700	-38.793099	-4.872574	7.418549	-63.787070	839.703266	-39.500102	8.931734	-45.000000	41.496283	-45.000000	24.529352	-2276.485029	-2618.263121	144.273624	-180.000000	1427.682758	-304.033752	23.803639	18.141421	3.569611	28.967107	-30.217022	-45.000000	-45.000000	-3163.558433	-261.250089	20.242842	-180.000000	1796.360093	520.794643	9.711394	-16.273754	
13.3800	-38.832261	-4.951481	7.325963	-64.488050	840.881751	-39.729971	8.897230	-45.000000	41.399680	-45.000000	24.525954	-2276.414618	-2618.207599	144.282277	-180.000000	1427.713382	-304.147226	24.006613	18.174879	3.535309	28.984290	-30.181794	-45.000000	-45.000000	-3163.504738	-261.201487	20.254099	-180.000000	1796.286048	520.217364	9.580056	-16.281777	
13.3900	-38.871433	-5.061920	7.264724	-65.160075	842.021309	-39.953063	8.862938	-45.000000	41.307991	-45.000000	24.512330	-2276.348817	-2618.141113	144.293014	-180.000000	1427.747366	-304.225535	24.202218	18.195599	3.505514	28.998431	-30.138550	-45.000000	-45.000000	-3163.460438	-261.152357	20.253617	-180.000000	1796.212294	519.722638	9.447616	-16.296022	
